<svg width="200" height="200" viewBox="0 0 200 200" xmlns="http://www.w3.org/2000/svg">
  <defs>
    <linearGradient id="cloudGradient" x1="0%" y1="0%" x2="100%" y2="100%">
      <stop offset="0%" style="stop-color:#06B6D4;stop-opacity:1" />
      <stop offset="100%" style="stop-color:#0891B2;stop-opacity:1" />
    </linearGradient>
  </defs>
  
  <rect width="200" height="200" rx="20" fill="url(#cloudGradient)"/>
  
  <!-- Cloud shape -->
  <path d="M60 110 C50 110 45 105 45 95 C45 85 55 80 65 80 C70 75 80 75 85 80 C95 75 105 75 110 80 C120 80 130 85 130 95 C130 100 125 105 120 105 L135 105 C145 105 150 110 150 120 C150 130 145 135 135 135 L75 135 C65 135 60 130 60 120 Z" fill="white" opacity="0.9"/>
  
  <!-- Server racks -->
  <rect x="70" y="150" width="60" height="8" rx="2" fill="white" opacity="0.7"/>
  <rect x="70" y="162" width="60" height="8" rx="2" fill="white" opacity="0.5"/>
  <rect x="70" y="174" width="60" height="8" rx="2" fill="white" opacity="0.6"/>
  
  <!-- Connection lines -->
  <path d="M100 135 L100 150" stroke="white" stroke-width="2" opacity="0.8"/>
  <path d="M85 140 L85 150" stroke="white" stroke-width="2" opacity="0.6"/>
  <path d="M115 140 L115 150" stroke="white" stroke-width="2" opacity="0.6"/>
  
  <!-- Title -->
  <text x="100" y="45" font-family="system-ui, sans-serif" font-size="14" font-weight="600" fill="white" text-anchor="middle">Infraestrutura</text>
  <text x="100" y="60" font-family="system-ui, sans-serif" font-size="14" font-weight="600" fill="white" text-anchor="middle">e Cloud</text>
</svg>