<svg width="200" height="200" viewBox="0 0 200 200" xmlns="http://www.w3.org/2000/svg">
  <defs>
    <linearGradient id="projectGradient" x1="0%" y1="0%" x2="100%" y2="100%">
      <stop offset="0%" style="stop-color:#84CC16;stop-opacity:1" />
      <stop offset="100%" style="stop-color:#65A30D;stop-opacity:1" />
    </linearGradient>
  </defs>
  
  <rect width="200" height="200" rx="20" fill="url(#projectGradient)"/>
  
  <!-- Kanban board -->
  <rect x="40" y="60" width="35" height="90" rx="3" fill="white" opacity="0.9"/>
  <rect x="85" y="60" width="35" height="90" rx="3" fill="white" opacity="0.7"/>
  <rect x="130" y="60" width="35" height="90" rx="3" fill="white" opacity="0.8"/>
  
  <!-- Cards -->
  <rect x="45" y="70" width="25" height="12" rx="2" fill="url(#projectGradient)" opacity="0.8"/>
  <rect x="45" y="88" width="25" height="12" rx="2" fill="url(#projectGradient)" opacity="0.6"/>
  
  <rect x="90" y="70" width="25" height="12" rx="2" fill="url(#projectGradient)" opacity="0.7"/>
  <rect x="90" y="88" width="25" height="12" rx="2" fill="url(#projectGradient)" opacity="0.5"/>
  <rect x="90" y="106" width="25" height="12" rx="2" fill="url(#projectGradient)" opacity="0.6"/>
  
  <rect x="135" y="70" width="25" height="12" rx="2" fill="url(#projectGradient)" opacity="0.8"/>
  
  <!-- Timeline -->
  <path d="M50 170 L150 170" stroke="white" stroke-width="3" opacity="0.8"/>
  <circle cx="70" cy="170" r="4" fill="white"/>
  <circle cx="100" cy="170" r="4" fill="white"/>
  <circle cx="130" cy="170" r="4" fill="white"/>
  
  <!-- Title -->
  <text x="100" y="35" font-family="system-ui, sans-serif" font-size="14" font-weight="600" fill="white" text-anchor="middle">Gestão de</text>
  <text x="100" y="50" font-family="system-ui, sans-serif" font-size="14" font-weight="600" fill="white" text-anchor="middle">Projetos em TI</text>
</svg>